<?xml version="1.0" encoding="UTF-8" standalone="no"?>
<!-- Created with Inkscape (http://www.inkscape.org/) -->

<svg
   width="200mm"
   height="200mm"
   viewBox="0 0 200 200"
   version="1.1"
   id="svg1"
   xml:space="preserve"
   xmlns="http://www.w3.org/2000/svg"
   xmlns:svg="http://www.w3.org/2000/svg"><defs
     id="defs1" /><g
     id="layer1"><g
       id="g6"
       transform="matrix(1.3671136,0.14550821,-0.14550821,1.3671136,-18.839371,-49.392987)"><path
         style="fill:#"
         d="m 33.359399,161.48819 c 0.273685,-2.01206 1.306112,-5.70871 2.011705,-7.203 1.80959,-3.83232 5.18885,-7.63122 13.34723,-15.00469 4.586487,-4.14523 4.894615,-4.79053 5.833816,-12.21762 0.289401,-2.28852 0.735841,-5.21927 0.992091,-6.51279 1.87218,-9.45047 5.24071,-20.45988 8.93952,-29.217093 3.86144,-9.14227 8.90987,-16.54404 16.54051,-24.25093 4.84477,-4.89318 7.98922,-7.317 12.90141,-9.94471 4.63286,-2.47829 6.141939,-3.95443 5.54139,-5.42042 -0.67843,-1.65608 -4.90412,-4.35302 -9.93153,-6.33855 -1.08248,-0.42751 -2.06977,-0.856697 -2.194,-0.953742 -0.54789,-0.428026 0.62964,-0.898154 3.71483,-1.483148 4.40106,-0.834499 11.873339,-0.367591 17.597729,1.099599 2.37905,0.609763 3.59408,1.039811 5.84098,2.067341 2.46719,1.12827 5.34892,2.05487 8.13209,2.61481 4.7235,0.95031 8.38731,2.05359 13.33848,4.01662 3.93151,1.55876 9.66529,4.4248 11.98774,5.99209 1.8482,1.24725 7.27552,5.462638 7.33578,5.80215 0.0568,0.319819 -0.44567,0.04266 -1.07353,-0.43103 -3.3741,-2.545583 -8.10831,-4.31021 -11.82826,-5.39799 -3.64197,-1.06498 -8.32886,-1.38754 -11.01226,-0.75789 -5.79092,1.358812 -6.96084,8.401979 -7.73829,8.50119 -0.77745,0.09921 -3.18423,0.6587 -3.18423,0.6587 -10.59448,2.19163 -20.40263,5.89303 -27.696479,10.4521 -5.455,3.40968 -11.30278,9.10761 -16.45692,16.0352 -7.63202,10.258053 -12.1578,20.851743 -13.00396,30.438923 -0.24654,2.79337 0.0164,8.70929 0.49088,11.04357 0.54044,2.65886 1.94697,5.50408 4.35936,8.81842 0.79357,1.09026 1.92429,2.95922 2.5127,4.15323 1.21287,2.46116 2.48583,6.15189 2.63884,7.65087 l 0.10282,1.00733 -0.60984,-0.37565 c -7.30232,-4.49803 -13.4495,-7.10166 -16.77584,-7.10537 -3.336188,-0.004 -9.230373,3.26522 -18.723685,10.38421 -2.066542,1.54969 -3.825292,2.81839 -3.908331,2.81932 -0.08304,9.3e-4 -0.09327,-0.42254 -0.02275,-0.94105 z M 72.060831,118.1078 c 2.410169,-6.3535 7.17853,-15.55173 10.6134,-20.473413 4.45678,-6.3859 8.24519,-10.01959 14.21836,-13.63763 7.846829,-4.75295 15.004829,-7.06602 19.839009,-6.41088 3.25692,0.4414 5.8217,2.64876 6.67145,5.74177 0.32043,1.16632 0.41459,6.12007 0.1636,8.60705 -0.14155,1.40253 -0.13909,1.41524 0.26168,1.35683 0.54106,-0.0788 1.92688,-1.84605 2.84127,-3.62316 1.87969,-3.65317 2.17067,-8.20574 0.81231,-12.70933 -0.14866,-0.49286 -0.39395,-0.858819 -0.19359,-0.97366 0.2318,-0.132862 0.90476,0.68953 1.91684,1.62707 2.4188,2.24065 3.29034,2.95152 5.32912,4.34673 2.54466,1.74139 2.96271,2.125801 6.68037,3.66272 8.59988,3.555285 17.46435,3.748915 17.65295,4.0506 0.32749,0.523853 -2.02286,0.17775 -8.76715,0.19459 -9.52786,0.0238 -13.13028,0.16407 -14.93995,0.58173 -1.54951,0.35761 -2.69003,1.02884 -4.51022,2.65439 -5.19156,4.6364 -9.13873,6.990673 -13.86892,8.272023 -3.40936,0.92355 -3.79471,0.42368 -1.84622,-2.394873 2.56974,-3.71721 3.48451,-5.61581 3.49244,-7.24853 0.003,-0.598 -0.10302,-0.88507 -0.4596,-1.24562 -0.43863,-0.4435 -0.5307,-0.46219 -1.72446,-0.35001 -3.03567,0.28527 -9.23093,1.87985 -13.29486,3.42191 -12.063249,4.57744 -22.575152,12.759573 -29.680459,23.102403 -0.953248,1.38759 -1.234119,1.89201 -1.291554,1.72795 -0.01244,-0.0356 0.029,-0.1352 0.08418,-0.28066 z"
         id="path5" /><ellipse
         style="opacity:1;fill:#000000;stroke-width:0.260933"
         id="path6"
         cx="151.50465"
         cy="35.868134"
         rx="4.1972532"
         ry="2.6602309"
         transform="rotate(12.983039)" /></g></g></svg>
